<?xml version="1.0" standalone="no"?><!DOCTYPE svg PUBLIC "-//W3C//DTD SVG 1.1//EN" "http://www.w3.org/Graphics/SVG/1.1/DTD/svg11.dtd"><svg t="1757843001190" class="icon" viewBox="0 0 1024 1024" version="1.1" xmlns="http://www.w3.org/2000/svg" p-id="29738" xmlns:xlink="http://www.w3.org/1999/xlink" width="200" height="200"><path d="M180.48 658.304v227.2l55.872 17.472s41.984-59.392 101.376-118.848L180.48 658.304z" fill="#E8BB17" p-id="29739"></path><path d="M400.64 480l-220.16-59.456V623.36l171.264 139.84s24.448-20.928 59.392-55.936V472.96l-10.432 7.04z" fill="#8EC63F" p-id="29740"></path><path d="M641.92 420.544l-230.784 55.936v234.24c55.936-52.48 146.816-129.344 230.72-185.28V420.544z" fill="#7CB741" p-id="29741"></path><path d="M281.792 920.448l118.912 35.008 10.432-3.52v-174.784c-80.384 80.384-129.28 143.36-129.28 143.36" fill="#B8E2FF" p-id="29742"></path><path d="M673.344 420.544v90.88h31.488V406.656z" fill="#E8BB17" p-id="29743"></path><path d="M911.04 577.92V462.464l-202.752-52.48h-3.456v104.96z" fill="#DE8B2C" p-id="29744"></path><path d="M911.04 916.992V623.296l-202.752-69.888v325.12l202.752 38.4z" fill="#B8E2FF" p-id="29745"></path><path d="M411.136 951.936l293.696-76.928v-325.12C589.44 616.32 488.064 703.744 411.136 780.608v171.328z" fill="#7DCAFF" p-id="29746"></path><path d="M449.6 245.76c0-48.896 38.464-87.36 87.424-87.36V81.472a180.48 180.48 0 0 0-181.76 181.76c0 101.376 174.72 374.08 181.76 374.08V333.184c-48.96 0-87.424-38.464-87.424-87.424" fill="#B8E2FF" p-id="29747"></path><path d="M536.96 81.472V161.92c48.96 0 87.424 38.464 87.424 87.424 0 48.96-38.4 87.424-87.36 87.424v304.128c6.976 0 181.76-272.64 181.76-374.08 0-104.896-83.84-185.28-181.76-185.28" fill="#7DCAFF" p-id="29748"></path><path d="M411.136 1007.872l-272.64-83.904-3.52-3.52V364.608h3.52l265.664 73.472h3.52c-41.984-80.448-62.912-139.84-62.912-174.848a186.496 186.496 0 0 1 185.28-185.28 186.496 186.496 0 0 1 185.216 185.28c0 24.512-10.432 59.456-27.968 104.96l10.496-3.584h3.52l251.712 69.952 3.456 3.52v555.776h-3.456l-248.192-59.392-293.696 73.408m-265.6-87.424l265.6 80.448 293.696-69.952 244.672 59.456V441.536l-248.192-69.888-14.016 3.456h-3.456v-3.456c20.992-48.96 31.424-83.904 31.424-108.416a179.008 179.008 0 0 0-178.24-178.24c-97.92 0-181.76 80.384-181.76 178.24 0 35.008 20.928 94.4 62.912 174.848v3.456s0 3.52-3.52 3.52l-7.04 3.456h-3.456L141.952 378.624v541.824h3.52zM536.96 336.704c-48.96 0-90.88-41.984-90.88-90.88 0-48.96 41.92-90.88 90.88-90.88 48.896 0 90.88 41.92 90.88 90.88-3.52 48.896-41.984 90.88-90.88 90.88m0-171.328c-45.44 0-83.904 38.4-83.904 83.904 0 45.44 38.4 83.84 83.84 83.84 45.44 0 83.968-38.4 83.968-83.84C617.408 200.32 582.4 165.376 536.96 165.376" fill="#B2841D" p-id="29749"></path><path d="M411.136 1018.368H407.68l-269.184-80.448c-3.52-3.456-10.496-6.976-10.496-13.952V368.128c0-3.52 3.52-7.04 3.52-10.496 3.456-3.456 6.976-3.456 10.432-3.456L390.208 420.48c-35.008-73.408-55.936-129.28-55.936-160.768A195.456 195.456 0 0 1 530.048 64a195.456 195.456 0 0 1 195.712 195.776c0 20.992-6.976 52.48-24.448 94.4l248.192 69.888c7.04 0 10.496 7.04 10.496 14.016v552.32c0 3.456-3.52 6.976-3.52 10.496-3.456 3.456-6.976 3.456-10.432 3.456l-248.256-59.392-286.656 73.408c3.52 0 3.52 0 0 0z m-255.168-104.896l258.688 76.928 290.176-69.952h3.456l234.24 55.936V452.032l-237.696-66.432-14.016 3.52c-3.52 0-10.496 0-13.952-3.52-3.52-3.456-3.52-10.496-3.52-13.952 20.992-48.96 31.488-83.904 31.488-104.896a167.808 167.808 0 0 0-335.616 0c0 31.488 20.992 94.4 62.912 171.328 3.52 3.456 3.52 6.976 0 10.432 0 3.52-3.52 7.04-10.496 7.04l-6.976 3.456h-7.04L156.032 392.576v520.96z m381.056-566.336c-55.936 0-97.92-45.44-97.92-97.856 0-55.936 45.44-97.92 97.92-97.92 55.936 0 97.92 45.44 97.92 97.92 0 52.48-45.44 97.92-97.92 97.92z m0-174.72A71.68 71.68 0 0 0 463.616 245.76 71.68 71.68 0 0 0 536.96 319.168 71.68 71.68 0 0 0 610.432 245.76c0-38.4-34.944-73.408-73.408-73.408z" fill="#0050AC" p-id="29750"></path></svg>