<?xml version="1.0" standalone="no"?><!DOCTYPE svg PUBLIC "-//W3C//DTD SVG 1.1//EN" "http://www.w3.org/Graphics/SVG/1.1/DTD/svg11.dtd"><svg t="1757842737727" class="icon" viewBox="0 0 1145 1024" version="1.1" xmlns="http://www.w3.org/2000/svg" p-id="7664" xmlns:xlink="http://www.w3.org/1999/xlink" width="223.6328125" height="200"><path d="M947.259366 610.611107h22.004121a3.607233 3.607233 0 0 1 2.885786 0l32.465097 59.519343c0 2.16434 0 9.018082-3.24651 13.707485a3.607233 3.607233 0 0 1-5.410849 0l-22.364845-15.511101-28.857863-54.469218a3.607233 3.607233 0 0 1 2.525063-3.246509z" fill="#FFBD26" p-id="7665"></path><path d="M902.168954 605.200257h51.222708s44.368965 80.080571 47.254751 85.491421-8.296636 30.300757-8.296635 30.300756l-45.811859-31.743649z" fill="#3D333F" p-id="7666"></path><path d="M953.391662 604.839534h-51.222708l18.396888 36.072329h51.944155z" fill="#474C58" p-id="7667"></path><path d="M953.391662 604.839534h-51.222708l8.657359 16.232548h51.583431z" fill="#B6C0CA" p-id="7668"></path><path d="M871.079127 894.283227m-127.694054 0.713186a127.696046 127.696046 0 1 0 255.388108-1.426371 127.696046 127.696046 0 1 0-255.388108 1.426371Z" fill="#422C3E" p-id="7669"></path><path d="M871.079127 894.283227m-127.694054 0.713186a127.696046 127.696046 0 1 0 255.388108-1.426371 127.696046 127.696046 0 1 0-255.388108 1.426371Z" fill="#362C37" p-id="7670"></path><path d="M871.079127 894.283227m-77.554298 0.43315a77.555508 77.555508 0 1 0 155.108597-0.866299 77.555508 77.555508 0 1 0-155.108597 0.866299Z" fill="#29252F" p-id="7671"></path><path d="M871.079127 894.283227m-69.257792 0.386813a69.258872 69.258872 0 1 0 138.515584-0.773625 69.258872 69.258872 0 1 0-138.515584 0.773625Z" fill="#C6CCD1" p-id="7672"></path><path d="M871.439954 894.283227m-62.043439 0.34652a62.044406 62.044406 0 1 0 124.086877-0.69304 62.044406 62.044406 0 1 0-124.086877 0.69304Z" fill="#E4E0E5" p-id="7673"></path><path d="M871.439954 894.283227m-48.696885 0.271978a48.697644 48.697644 0 1 0 97.39377-0.543956 48.697644 48.697644 0 1 0-97.39377 0.543956Z" fill="#C6CCD1" p-id="7674"></path><path d="M871.439954 894.283227m-24.889519 0.139011a24.889907 24.889907 0 1 0 49.779038-0.278022 24.889907 24.889907 0 1 0-49.779038 0.278022Z" fill="#362C37" p-id="7675"></path><path d="M703.049697 879.34996h-202.005044a13.707485 13.707485 0 0 1-13.707485-13.707485 13.707485 13.707485 0 0 1 13.707485-13.707486h202.005044a13.707485 13.707485 0 0 1 13.707485 13.707486 13.707485 13.707485 0 0 1-13.707485 13.707485z" fill="#3D333F" p-id="7676"></path><path d="M917.319333 894.139615h-182.525986a48.697644 48.697644 0 0 1-48.697645-48.336921 48.697644 48.697644 0 0 1 48.336921-48.697645h182.525986a48.697644 48.697644 0 0 1 48.697645 48.336921 48.697644 48.697644 0 0 1-48.336921 48.697645z" fill="#1D1925" p-id="7677"></path><path d="M295.7931 432.053077l-11.903869 8.296636s-36.072329 147.535827-108.216988 188.297558l-2.885786 23.807738a247.816902 247.816902 0 0 0 123.006643-220.401932z" fill="#0A7CE6" p-id="7678"></path><path d="M545.413618 530.169813s10.100252-52.304877 36.072329-52.665601 76.834061 16.593271 97.756013 6.853742l20.561227-9.739528s59.880067-6.853743 112.184944 72.144658z" fill="#422C3E" p-id="7679"></path><path d="M974.313613 765.000676c0-252.506305-257.556431-236.63448-257.556431-236.63448h-169.179224c-13.346762 0-12.264592 17.675441-12.264592 17.675441 4.32868 91.262993 78.998401 76.473338 102.084692 153.3074a104.249032 104.249032 0 0 1-47.254752 117.595793h-161.964758a94.148779 94.148779 0 0 1-92.705886-59.880066c-72.144658-144.289317 3.24651-356.03389 3.24651-356.03389H298.678886s-20.200504 199.479981-140.321361 249.620518l-2.525063 82.966358s55.91211-50.861984 110.742051 40.401008 83.327081 93.788056 124.810259 93.788056h269.099577c42.565349 0 80.080571-95.230949 87.65576-115.431453z" fill="#0AA1E6" p-id="7680"></path><path d="M135.946596 896.224788m-127.694054 0.713186a127.696046 127.696046 0 1 0 255.388108-1.426371 127.696046 127.696046 0 1 0-255.388108 1.426371Z" fill="#422C3E" p-id="7681"></path><path d="M135.946596 896.224788m-127.694054 0.713186a127.696046 127.696046 0 1 0 255.388108-1.426371 127.696046 127.696046 0 1 0-255.388108 1.426371Z" fill="#362C37" p-id="7682"></path><path d="M135.946596 896.224788m-77.554298 0.43315a77.555508 77.555508 0 1 0 155.108597-0.866299 77.555508 77.555508 0 1 0-155.108597 0.866299Z" fill="#29252F" p-id="7683"></path><path d="M135.946596 896.224788m-69.257792 0.386813a69.258872 69.258872 0 1 0 138.515584-0.773625 69.258872 69.258872 0 1 0-138.515584 0.773625Z" fill="#C6CCD1" p-id="7684"></path><path d="M135.946596 896.224788m-62.043438 0.34652a62.044406 62.044406 0 1 0 124.086877-0.693039 62.044406 62.044406 0 1 0-124.086877 0.693039Z" fill="#E4E0E5" p-id="7685"></path><path d="M135.946596 896.224788m-48.696885 0.271978a48.697644 48.697644 0 1 0 97.39377-0.543955 48.697644 48.697644 0 1 0-97.39377 0.543955Z" fill="#C6CCD1" p-id="7686"></path><path d="M135.946596 896.224788m-24.889519 0.139011a24.889907 24.889907 0 1 0 49.779038-0.278022 24.889907 24.889907 0 1 0-49.779038 0.278022Z" fill="#362C37" p-id="7687"></path><path d="M301.925396 876.824897a9.018082 9.018082 0 0 0 9.018082-9.378806 174.950797 174.950797 0 0 0-309.139862-102.445415 9.018082 9.018082 0 0 0 0 10.460975 79.359124 79.359124 0 0 0 61.683683 36.07233h1.803617c11.182422 0 117.23507-9.739529 149.700166 25.611353s30.300757 36.072329 41.483179 38.958116l10.100252 2.525063h36.072329zM655.794946 825.602189c0-85.49142 24.529184-191.183345 154.028846-191.544068 144.289317 0 241.684606 104.970478 241.684606 190.461898zM275.231872 418.345592h29.57931c41.483179 0 75.030445-20.921951 75.030445-46.894028 0-25.611354-33.907989-46.533305-75.391168-46.172582h-29.218587z" fill="#0A7CE6" p-id="7688"></path><path d="M377.677287 360.269142a76.834061 76.834061 0 0 0-72.144658-36.072329h-28.857864v72.144658h27.775694a76.834061 76.834061 0 0 0 73.226828-36.072329z" fill="#0AA1E6" p-id="7689"></path><path d="M249.981242 324.918259l28.136416-0.072144 0.252507 93.788056-28.136417 0.072144z" fill="#FCE5F4" p-id="7690"></path><path d="M250.089459 361.351312l28.136416-0.072145 0.14429 57.355004-28.136417 0.072144z" fill="#CCCACA" p-id="7691"></path><path d="M250.197676 402.473767l28.136416-0.072145 0.036073 16.232549-28.136417 0.072144z" fill="#98B1B1" p-id="7692"></path><path d="M868.982412 855.902946h-103.888309a10.460975 10.460975 0 0 1-10.460975-10.460976 10.460975 10.460975 0 0 1 10.460975-10.460975h103.888309a10.460975 10.460975 0 0 1 10.460975 10.460975 10.460975 10.460975 0 0 1-10.460975 10.460976zM900.726061 855.902946h-3.607233a10.460975 10.460975 0 0 1-10.460975-10.460976 10.460975 10.460975 0 0 1 10.460975-10.460975h2.885787a10.460975 10.460975 0 0 1 10.460975 10.460975 10.460975 10.460975 0 0 1-9.739529 10.460976z" fill="#3D333F" p-id="7693"></path><path d="M894.593765 758.507657h-116.1529a11.543145 11.543145 0 0 1-11.543145-11.543146 11.543145 11.543145 0 0 1 11.543145-11.543145h116.1529a11.543145 11.543145 0 0 1 11.543146 11.543145 11.543145 11.543145 0 0 1-11.543146 11.543146zM894.593765 797.826496h-116.1529a11.543145 11.543145 0 0 1-11.543145-11.543146 11.543145 11.543145 0 0 1 11.543145-11.543145h116.1529a11.543145 11.543145 0 0 1 11.543146 11.543145 11.543145 11.543145 0 0 1-11.543146 11.543146z" fill="#0A6BCB" p-id="7694"></path><path d="M692.588722 568.045758h-113.988561a11.543145 11.543145 0 0 1-11.543145-11.543145 11.543145 11.543145 0 0 1 11.543145-11.543145h114.349284a11.543145 11.543145 0 0 1 11.543145 11.543145 11.543145 11.543145 0 0 1-11.903868 11.543145zM735.15407 568.045758h-5.050126a11.543145 11.543145 0 0 1-11.543145-11.543145 11.543145 11.543145 0 0 1 11.543145-11.543145h5.050126a11.543145 11.543145 0 0 1 11.543145 11.543145 11.543145 11.543145 0 0 1-11.543145 11.543145z" fill="#33BDE6" p-id="7695"></path><path d="M20.200504 762.475613a137.435574 137.435574 0 0 1 66.373086-40.761732 17.314718 17.314718 0 0 1 6.132296 18.757611c-2.16434 6.132296-54.82994 36.072329-59.15862 42.565349-5.771573 1.442893-20.561228-11.182422-13.346762-20.561228zM103.527585 717.385201a49.419091 49.419091 0 0 1 28.49714-2.885786 11.182422 11.182422 0 0 1 0 16.593272 144.289317 144.289317 0 0 1-27.054247 5.771572c-1.442893-1.442893-5.050126-18.036165-1.442893-19.479058zM714.232119 719.188818a12.625315 12.625315 0 0 1-10.460975-19.479058 108.216988 108.216988 0 0 1 75.751891-45.811858 12.625315 12.625315 0 0 1 0 24.889907 84.40925 84.40925 0 0 0-56.99428 36.072329 12.625315 12.625315 0 0 1-8.296636 4.32868z" fill="#0AA1E6" p-id="7696"></path><path d="M818.348376 663.861956m-11.5431 0.032234a11.543145 11.543145 0 1 0 23.086201-0.064469 11.543145 11.543145 0 1 0-23.086201 0.064469Z" fill="#0AA1E6" p-id="7697"></path><path d="M902.529678 692.856018a12.264592 12.264592 0 0 1-6.132296 0 130.581832 130.581832 0 0 0-44.729688-10.821699 12.625315 12.625315 0 0 1 0-24.889907 156.914632 156.914632 0 0 1 55.190663 13.707485 12.625315 12.625315 0 0 1-6.132296 23.447014z" fill="#0AA1E6" p-id="7698"></path><path d="M350.62304 357.744079h-3.246509a111.102774 111.102774 0 0 0-52.665601-10.100252 6.132296 6.132296 0 0 1 0-12.264592 121.56375 121.56375 0 0 1 59.519343 11.543145 6.132296 6.132296 0 0 1-3.246509 11.543145z" fill="#33BDE6" p-id="7699"></path><path d="M897.118828 609.88966a6.132296 6.132296 0 0 1-3.967956-11.182422l95.230949-76.473338a6.276585 6.276585 0 1 1 7.935913 9.739529l-95.230949 76.473338a6.132296 6.132296 0 0 1-3.967957 1.442893zM839.763825 572.013715a8.296636 8.296636 0 0 1-8.296636-8.296636v-30.300757a8.296636 8.296636 0 0 1 8.296636-8.296635h33.907989a8.296636 8.296636 0 0 1 8.296636 8.296635l-33.907989 30.66148a8.296636 8.296636 0 0 1-8.296636 7.935913z" fill="#474C58" p-id="7700"></path><path d="M1079.644814 531.251982h-265.492343a6.132296 6.132296 0 0 1-6.132296-6.132295 6.132296 6.132296 0 0 1 6.132296-6.132296h265.492343a6.132296 6.132296 0 0 1 6.132296 6.132296 6.132296 6.132296 0 0 1-6.132296 6.132295z" fill="#B6C0CA" p-id="7701"></path><path d="M809.220295 323.467595m60.959325 0.595826l207.04528 2.023693q60.959325 0.595826 60.363499 61.55515l-0.454802 46.531082q-0.595826 60.959325-61.555151 60.363499l-207.04528-2.023693q-60.959325-0.595826-60.363499-61.55515l0.454802-46.531082q0.595826-60.959325 61.555151-60.363499Z" fill="#0AA1E6" p-id="7702"></path><path d="M809.210562 433.49597l328.979643 3.210438-0.721447 74.669721-328.979643-3.24651z" fill="#0A7CE6" p-id="7703"></path><path d="M810.143791 339.713471m13.346124 0.130447l302.271681 2.95445q13.346124 0.130447 13.215677 13.476571l-0.105768 10.821182q-0.130447 13.346124-13.476571 13.215677l-302.271681-2.95445q-13.346124-0.130447-13.215677-13.476571l0.105767-10.821182q0.130447-13.346124 13.476572-13.215677Z" fill="#0A7CE6" p-id="7704"></path><path d="M803.366845 331.699857l341.965681 3.354727-0.288579 29.218586-341.965681-3.354726z" fill="#0AA1E6" p-id="7705"></path><path d="M802.789687 353.343255l341.965682 3.354726-0.072145 7.214466-341.965681-3.354727z" fill="#0A7CE6" p-id="7706"></path><path d="M979.886317 481.73322a93.066609 44.368965 0.56 1 0 0.867297-88.733691 93.066609 44.368965 0.56 1 0-0.867297 88.733691Z" fill="#FCA100" p-id="7707"></path><path d="M502.487546 746.243065l3.24651 20.561227s-10.460975 23.807737-24.168461 28.497141-50.861984 11.182422-59.15862 15.511101-2.525063 8.296636-2.525063 8.296636l113.267114-2.885786 39.318839-56.633557a80.080571 80.080571 0 0 0-29.57931-22.725568 69.980319 69.980319 0 0 0-12.625315-10.821699z" fill="#422C3E" p-id="7708"></path><path d="M572.467865 392.012792l-7.935912 14.789655s-184.329602 17.314718-210.30168 59.519343 124.449536 225.091335 134.189065 288.578634a91.262993 91.262993 0 0 0 55.190664-25.972077s-96.673842-205.251553-101.723969-229.780738a613.229597 613.229597 0 0 1 82.966358 0c20.921951 3.607233 147.89655 19.118335 165.571991-27.054246 7.935912-16.953995 17.675441-41.843902 17.675441-41.843902z" fill="#422C3E" p-id="7709"></path><path d="M564.171229 406.802447s100.281075 40.040285 144.289317 23.807737a1143.85356 1143.85356 0 0 0-135.992681-38.597392z" fill="#2C2C2F" p-id="7710"></path><path d="M640.283844 415.099082l-77.555508-23.447014a445.853989 445.853989 0 0 0-108.216987-187.936835s20.200504-49.779814 59.880066-41.122455 232.3058 106.052648 202.365767 270.181746c0 0-34.268713-6.493019-76.473338-17.675442z" fill="#0AA1E6" p-id="7711"></path><path d="M344.490744 110.648623s-20.921951 22.004121-20.200504 26.332801a59.519343 59.519343 0 0 0 31.74365 7.575189c6.493019-1.803616-11.543145-33.907989-11.543146-33.90799z" fill="#D43614" p-id="7712"></path><path d="M512.948522 123.634662a84.40925 84.40925 0 0 1-90.541547 77.555508C342.687128 195.057874 340.883511 157.181928 344.490744 110.648623a84.481395 84.481395 0 0 1 168.457778 12.986039z" fill="#FEA77C" p-id="7713"></path><path d="M336.194109 76.740634l94.509502 33.547266s-15.150378 89.098653 5.050126 97.395289 72.144658-14.068208 91.262993-67.815979a98.477459 98.477459 0 0 0-48.336921-129.860385A91.98444 91.98444 0 0 0 351.344487 58.343746s-31.382926 1.803616-31.382927 8.657359 16.232548 9.739529 16.232549 9.739529z" fill="#FCA100" p-id="7714"></path><path d="M351.344487 58.343746l79.359124 51.944154a994.153394 994.153394 0 0 1-129.138938-47.615474 174.590074 174.590074 0 0 1 49.779814-4.32868z" fill="#0AA1E6" p-id="7715"></path><path d="M466.802866 142.838486m-1.751393 22.65798a22.725567 22.725567 0 1 0 3.502785-45.315959 22.725567 22.725567 0 1 0-3.502785 45.315959Z" fill="#FCBE01" p-id="7716"></path><path d="M466.802866 142.838486m-0.889597 11.508815a11.543145 11.543145 0 1 0 1.779193-23.01763 11.543145 11.543145 0 1 0-1.779193 23.01763Z" fill="#0AA1E6" p-id="7717"></path><path d="M519.802264 281.270741s19.118335 25.25063 18.396888 36.072329-125.892429 40.040285-184.329602 33.547266c0 0-12.264592-18.396888-24.529184-20.561227s-24.168461 12.986039-36.072329 17.314718-12.625315 32.465096-4.32868 36.072329 18.396888-26.3328 18.396888-26.3328 15.871825 31.74365 33.186543 27.41497l17.314718-4.32868s214.630359 2.16434 244.931116-39.318839a198.397811 198.397811 0 0 0-45.811858-81.16274z" fill="#FEA77C" p-id="7718"></path><path d="M461.365091 233.655266l46.894028 65.290916a72.144658 72.144658 0 0 0 64.208746-46.172581c-12.625315-16.232548-43.647518-67.815979-62.044406-76.473338a36.072329 36.072329 0 0 0-49.419091 9.378805 41.843902 41.843902 0 0 0 0.360723 47.976198z" fill="#E4E0E5" p-id="7719"></path><path d="M348.819424 82.87293a39.318839 39.318839 0 0 0-7.575189 24.889907 36.072329 36.072329 0 0 0 31.743649 0 411.946 411.946 0 0 1 55.190664 14.068209v-11.543146z" fill="#422C3E" p-id="7720"></path><path d="M344.130021 85.03727a43.647518 43.647518 0 0 0-5.050126 19.479057c3.607233 3.607233 29.218587 6.132296 32.104373-3.607232s-20.561228-15.871825-27.054247-15.871825z" fill="#E4E0E5" p-id="7721"></path><path d="M311.995445 366.249125m-14.311657 1.835904a14.428932 14.428932 0 1 0 28.623314-3.671809 14.428932 14.428932 0 1 0-28.623314 3.671809Z" fill="#422C3E" p-id="7722"></path></svg>